<?xml version="1.0" encoding="UTF-8" standalone="no"?>
<!DOCTYPE svg PUBLIC "-//W3C//DTD SVG 1.1//EN" "http://www.w3.org/Graphics/SVG/1.1/DTD/svg11.dtd">
<!-- Создано Microsoft Visio, экспорт SVG planned-architecture.svg Page-1 -->
<svg xmlns="http://www.w3.org/2000/svg" xmlns:xlink="http://www.w3.org/1999/xlink" xmlns:ev="http://www.w3.org/2001/xml-events"
		width="11.6929in" height="8.26772in" viewBox="0 0 841.89 595.276" xml:space="preserve" color-interpolation-filters="sRGB"
		class="st29">
	<style type="text/css">
	<![CDATA[
		.st1 {fill:#d8d8d8;stroke:#7f7f7f;stroke-linecap:round;stroke-linejoin:round;stroke-width:1.5}
		.st2 {fill:#000000;font-family:Calibri;font-size:2.50001em;font-weight:bold}
		.st3 {fill:#5b9bd5;stroke:#ffffff;stroke-linecap:round;stroke-linejoin:round;stroke-width:0.5}
		.st4 {fill:#ffffff;stroke:#ffffff;stroke-linecap:round;stroke-linejoin:round;stroke-width:0.5}
		.st5 {fill:#ffffff;stroke:none;stroke-linecap:butt;stroke-width:12.2892}
		.st6 {fill:#27a9e1;fill-opacity:0.6;stroke:none;stroke-linecap:butt;stroke-width:12.2892}
		.st7 {fill:#672a7a;stroke:none;stroke-linecap:butt;stroke-width:12.2892}
		.st8 {fill:#b92025;fill-opacity:0.3;stroke:none;stroke-linecap:butt;stroke-width:12.2892}
		.st9 {fill:#0072c6;stroke:none;stroke-linecap:butt;stroke-width:12.24}
		.st10 {fill:#7a7a7a;stroke:none;stroke-linecap:butt;stroke-width:12.24}
		.st11 {fill:#b8d432;stroke:none;stroke-linecap:butt;stroke-width:12.24}
		.st12 {fill:#57a300;stroke:none;stroke-linecap:butt;stroke-width:12.24}
		.st13 {fill:none;stroke:none;stroke-linecap:round;stroke-linejoin:round;stroke-width:0.5}
		.st14 {fill:#000000;font-family:Calibri;font-size:1.33333em}
		.st15 {fill:url(#grad0-87);stroke:none;stroke-linecap:butt;stroke-width:34}
		.st16 {fill:#e8e8e8;stroke:none;stroke-linecap:butt;stroke-width:34}
		.st17 {fill:#50e6ff;stroke:none;stroke-linecap:butt;stroke-width:34}
		.st18 {fill:#198ab3;stroke:none;stroke-linecap:butt;stroke-width:34}
		.st19 {fill:#f2f2f2;stroke:none;stroke-linecap:butt;stroke-width:34}
		.st20 {fill:#ffffff;fill-opacity:0.15;stroke:none;stroke-linecap:butt;stroke-width:12.24}
		.st21 {fill:#ffffff;stroke:none;stroke-linecap:butt;stroke-width:12.24}
		.st22 {fill:#000000;font-family:Calibri;font-size:1.00001em}
		.st23 {fill:#73ae42;stroke:#ffffff;stroke-linecap:round;stroke-linejoin:round;stroke-width:0.5}
		.st24 {fill:#ffffff;stroke:none;stroke-linecap:butt;stroke-width:34}
		.st25 {fill:url(#grad0-318);stroke:none;stroke-linecap:butt;stroke-width:34}
		.st26 {fill:#53b1e0;stroke:none;stroke-linecap:butt;stroke-width:34}
		.st27 {fill:#9cebff;stroke:none;stroke-linecap:butt;stroke-width:34}
		.st28 {fill:url(#grad0-326);stroke:none;stroke-linecap:butt;stroke-width:34}
		.st29 {fill:none;fill-rule:evenodd;font-size:12px;overflow:visible;stroke-linecap:square;stroke-miterlimit:3}
	]]>
	</style>

	<defs id="Patterns_And_Gradients">
		<linearGradient id="grad0-87" x1="0" y1="0" x2="1" y2="0" gradientTransform="rotate(-0.0087329700482936 0.5 0.5)">
			<stop offset="0" stop-color="#005ba1" stop-opacity="1"/>
			<stop offset="0.07" stop-color="#0060a9" stop-opacity="1"/>
			<stop offset="0.36" stop-color="#0071c8" stop-opacity="1"/>
			<stop offset="0.52" stop-color="#0078d4" stop-opacity="1"/>
			<stop offset="0.64" stop-color="#0074cd" stop-opacity="1"/>
			<stop offset="0.82" stop-color="#006abb" stop-opacity="1"/>
			<stop offset="1" stop-color="#005ba1" stop-opacity="1"/>
		</linearGradient>
		<linearGradient id="grad0-318" x1="0" y1="0" x2="1" y2="0" gradientTransform="rotate(-133.54829310906 0.5 0.5)">
			<stop offset="0" stop-color="#1988d9" stop-opacity="1"/>
			<stop offset="0.9" stop-color="#54aef0" stop-opacity="1"/>
		</linearGradient>
		<linearGradient id="grad0-326" x1="0" y1="0" x2="1" y2="0" gradientTransform="rotate(65.834982258294 0.5 0.5)">
			<stop offset="0.1" stop-color="#54aef0" stop-opacity="1"/>
			<stop offset="0.29" stop-color="#4fabee" stop-opacity="1"/>
			<stop offset="0.51" stop-color="#41a2e9" stop-opacity="1"/>
			<stop offset="0.74" stop-color="#2a93e0" stop-opacity="1"/>
			<stop offset="0.88" stop-color="#1988d9" stop-opacity="1"/>
		</linearGradient>
	</defs>
	<g>
		<title>Страница-1</title>
		<g id="shape49-1" transform="translate(70.8661,-467.717)">
			<title>Прямоугольник.49</title>
			<rect x="0" y="524.409" width="694.488" height="70.8661" class="st1"/>
		</g>
		<g id="shape48-3" transform="translate(56.6929,-481.89)">
			<title>Прямоугольник.48</title>
			<rect x="0" y="524.409" width="694.488" height="70.8661" class="st1"/>
		</g>
		<g id="shape43-5" transform="translate(42.5197,-496.063)">
			<title>Прямоугольник</title>
			<desc>Портал организации</desc>
			<rect x="0" y="524.409" width="694.488" height="70.8661" class="st1"/>
			<text x="212.85" y="568.84" class="st2">Портал организации</text>		</g>
		<g id="shape44-8" transform="translate(70.8661,-368.504)">
			<title>Прямоугольник.44</title>
			<desc>Менеджер ресурсов</desc>
			<rect x="0" y="524.409" width="666.142" height="70.8661" class="st1"/>
			<text x="199.11" y="568.84" class="st2">Менеджер ресурсов</text>		</g>
		<g id="shape45-11" transform="translate(70.8661,-99.2126)">
			<title>Прямоугольник.45</title>
			<rect x="0" y="368.504" width="212.598" height="226.772" class="st3"/>
		</g>
		<g id="shape51-13" transform="translate(85.0394,-198.425)">
			<title>Прямоугольник.51</title>
			<rect x="0" y="510.236" width="184.252" height="85.0394" class="st4"/>
		</g>
		<g id="group54-15" transform="translate(99.2126,-212.598)">
			<title>Container Instances</title>
			<g id="shape55-16" transform="translate(0,-13.6293)">
				<title>Лист.55</title>
				<path d="M31.5 579.65 A9.03246 9.03246 -180 0 0 15.14 574.88 A7.15085 7.15085 -180 0 0 3.84 582.3 A6.79119 6.79119
							 -180 0 0 6.64 595.28 L29.64 595.28 A7.92242 7.92242 -180 0 0 31.5 579.65 Z" class="st5"/>
			</g>
			<g id="shape56-18" transform="translate(0,-13.6293)">
				<title>Лист.56</title>
				<path d="M31.5 579.65 A9.03246 9.03246 -180 0 0 15.14 574.88 A7.15085 7.15085 -180 0 0 3.84 582.3 A6.79119 6.79119
							 -180 0 0 6.64 595.28 L29.64 595.28 A7.92242 7.92242 -180 0 0 31.5 579.65 Z" class="st6"/>
			</g>
			<g id="shape57-20" transform="translate(8.85824,1.13687E-13)">
				<title>Лист.57</title>
				<path d="M0.76 574.07 a0.757185 0.757185 -180 0 0 -0.757185 0.757185 L0 594.52 a0.757185 0.757185 -180 0 0 0.757185
							 0.757185 L18.93 595.28 a0.757185 0.757185 -180 0 0 0.757185 -0.757185 L19.69 574.83 a0.757185 0.757185
							 -180 0 0 -0.757185 -0.757185 L0.76 574.07 Z" class="st7"/>
			</g>
			<g id="shape58-22" transform="translate(20.1781,-25.7443)">
				<title>Лист.58</title>
			</g>
			<g id="shape59-23" transform="translate(26.2356,-22.7155)">
				<title>Лист.59</title>
			</g>
			<g id="shape60-24" transform="translate(14.9157,-21.2012)">
				<title>Лист.60</title>
				<path d="M2.27 595.28 L2.27 589.98 L0 589.98 L3.79 584.68 L7.57 589.98 L5.3 589.98 L5.3 595.28 L2.27 595.28 Z"
						class="st5"/>
			</g>
			<g id="shape61-26" transform="translate(20.1781,-25.7443)">
				<title>Лист.61</title>
			</g>
			<g id="shape62-27" transform="translate(11.1298,-2.27155)">
				<title>Лист.62</title>
				<path d="M13.63 578.62 L0 578.62 L0 595.28 L15.14 595.28 L15.14 578.62 L13.63 578.62 ZM4.54 593.76 L1.51 593.76 L1.51
							 580.13 L4.54 580.13 L4.54 593.76 ZM9.09 593.76 L6.06 593.76 L6.06 580.13 L9.09 580.13 L9.09 593.76 ZM13.63
							 593.76 L10.6 593.76 L10.6 580.13 L13.63 580.13 L13.63 593.76 Z" class="st8"/>
			</g>
			<g id="shape63-29" transform="translate(11.1298,-2.27155)">
				<title>Лист.63</title>
				<path d="M13.63 578.62 L0 578.62 L0 595.28 L15.14 595.28 L15.14 578.62 L13.63 578.62 ZM4.54 593.76 L1.51 593.76 L1.51
							 580.13 L4.54 580.13 L4.54 593.76 ZM9.09 593.76 L6.06 593.76 L6.06 580.13 L9.09 580.13 L9.09 593.76 ZM13.63
							 593.76 L10.6 593.76 L10.6 580.13 L13.63 580.13 L13.63 593.76 Z" class="st5"/>
			</g>
		</g>
		<g id="group78-31" transform="translate(89.9858,-113.386)">
			<title>Hosts</title>
			<g id="group79-32">
				<title>Лист.79</title>
				<g id="shape80-33" transform="translate(21.6878,-7.89208)">
					<title>Лист.80</title>
					<rect x="0" y="563.315" width="3.42439" height="31.961" class="st9"/>
				</g>
				<g id="shape81-35" transform="translate(0,-39.8531)">
					<title>Лист.81</title>
					<path d="M44.9 579.3 L1.9 579.3 C0.85 579.3 0 580.15 0 581.2 L0 593.37 C0 594.42 0.85 595.28 1.9 595.28 L44.9
								 595.28 C45.95 595.28 46.8 594.42 46.8 593.37 L46.8 581.2 C46.8 580.15 45.94 579.3 44.9 579.3 Z"
							class="st10"/>
				</g>
				<g id="shape82-37" transform="translate(38.8098,-43.2774)">
					<title>Лист.82</title>
					<path d="M0 585 L3.42 585 L3.42 588.43 L0 588.43 L0 585 ZM0 591.85 L3.42 591.85 L3.42 595.28 L0 595.28 L0 591.85
								 Z" class="st11"/>
				</g>
				<g id="shape83-39" transform="translate(0,-18.1652)">
					<title>Лист.83</title>
					<path d="M44.9 579.3 L1.9 579.3 C0.85 579.3 0 580.15 0 581.2 L0 593.37 C0 594.42 0.85 595.28 1.9 595.28 L44.9
								 595.28 C45.95 595.28 46.8 594.42 46.8 593.37 L46.8 581.2 C46.8 580.15 45.94 579.3 44.9 579.3 Z"
							class="st10"/>
				</g>
				<g id="shape84-41" transform="translate(38.8098,-21.5896)">
					<title>Лист.84</title>
					<path d="M0 585 L3.42 585 L3.42 588.43 L0 588.43 L0 585 ZM0 591.85 L3.42 591.85 L3.42 595.28 L0 595.28 L0 591.85
								 Z" class="st11"/>
				</g>
				<g id="shape85-43" transform="translate(18.3776,0)">
					<title>Лист.85</title>
					<ellipse cx="5.02244" cy="590.253" rx="5.02244" ry="5.02244" class="st12"/>
				</g>
				<g id="shape86-45" transform="translate(18.3776,-0.0159805)">
					<title>Лист.86</title>
					<ellipse cx="5.02244" cy="590.253" rx="5.02244" ry="5.02244" class="st9"/>
				</g>
			</g>
		</g>
		<g id="group92-47" transform="translate(151.625,-113.386)">
			<title>Hosts.92</title>
			<g id="group93-48">
				<title>Лист.93</title>
				<g id="shape94-49" transform="translate(21.6878,-7.89208)">
					<title>Лист.94</title>
					<rect x="0" y="563.315" width="3.42439" height="31.961" class="st9"/>
				</g>
				<g id="shape95-51" transform="translate(0,-39.8531)">
					<title>Лист.95</title>
					<path d="M44.9 579.3 L1.9 579.3 C0.85 579.3 0 580.15 0 581.2 L0 593.37 C0 594.42 0.85 595.28 1.9 595.28 L44.9
								 595.28 C45.95 595.28 46.8 594.42 46.8 593.37 L46.8 581.2 C46.8 580.15 45.94 579.3 44.9 579.3 Z"
							class="st10"/>
				</g>
				<g id="shape96-53" transform="translate(38.8098,-43.2774)">
					<title>Лист.96</title>
					<path d="M0 585 L3.42 585 L3.42 588.43 L0 588.43 L0 585 ZM0 591.85 L3.42 591.85 L3.42 595.28 L0 595.28 L0 591.85
								 Z" class="st11"/>
				</g>
				<g id="shape97-55" transform="translate(0,-18.1652)">
					<title>Лист.97</title>
					<path d="M44.9 579.3 L1.9 579.3 C0.85 579.3 0 580.15 0 581.2 L0 593.37 C0 594.42 0.85 595.28 1.9 595.28 L44.9
								 595.28 C45.95 595.28 46.8 594.42 46.8 593.37 L46.8 581.2 C46.8 580.15 45.94 579.3 44.9 579.3 Z"
							class="st10"/>
				</g>
				<g id="shape98-57" transform="translate(38.8098,-21.5896)">
					<title>Лист.98</title>
					<path d="M0 585 L3.42 585 L3.42 588.43 L0 588.43 L0 585 ZM0 591.85 L3.42 591.85 L3.42 595.28 L0 595.28 L0 591.85
								 Z" class="st11"/>
				</g>
				<g id="shape99-59" transform="translate(18.3776,0)">
					<title>Лист.99</title>
					<ellipse cx="5.02244" cy="590.253" rx="5.02244" ry="5.02244" class="st12"/>
				</g>
				<g id="shape100-61" transform="translate(18.3776,-0.0159805)">
					<title>Лист.100</title>
					<ellipse cx="5.02244" cy="590.253" rx="5.02244" ry="5.02244" class="st9"/>
				</g>
			</g>
		</g>
		<g id="group101-63" transform="translate(212.598,-113.386)">
			<title>Hosts.101</title>
			<g id="group102-64">
				<title>Лист.102</title>
				<g id="shape103-65" transform="translate(21.6878,-7.89208)">
					<title>Лист.103</title>
					<rect x="0" y="563.315" width="3.42439" height="31.961" class="st9"/>
				</g>
				<g id="shape104-67" transform="translate(0,-39.8531)">
					<title>Лист.104</title>
					<path d="M44.9 579.3 L1.9 579.3 C0.85 579.3 0 580.15 0 581.2 L0 593.37 C0 594.42 0.85 595.28 1.9 595.28 L44.9
								 595.28 C45.95 595.28 46.8 594.42 46.8 593.37 L46.8 581.2 C46.8 580.15 45.94 579.3 44.9 579.3 Z"
							class="st10"/>
				</g>
				<g id="shape105-69" transform="translate(38.8098,-43.2774)">
					<title>Лист.105</title>
					<path d="M0 585 L3.42 585 L3.42 588.43 L0 588.43 L0 585 ZM0 591.85 L3.42 591.85 L3.42 595.28 L0 595.28 L0 591.85
								 Z" class="st11"/>
				</g>
				<g id="shape106-71" transform="translate(0,-18.1652)">
					<title>Лист.106</title>
					<path d="M44.9 579.3 L1.9 579.3 C0.85 579.3 0 580.15 0 581.2 L0 593.37 C0 594.42 0.85 595.28 1.9 595.28 L44.9
								 595.28 C45.95 595.28 46.8 594.42 46.8 593.37 L46.8 581.2 C46.8 580.15 45.94 579.3 44.9 579.3 Z"
							class="st10"/>
				</g>
				<g id="shape107-73" transform="translate(38.8098,-21.5896)">
					<title>Лист.107</title>
					<path d="M0 585 L3.42 585 L3.42 588.43 L0 588.43 L0 585 ZM0 591.85 L3.42 591.85 L3.42 595.28 L0 595.28 L0 591.85
								 Z" class="st11"/>
				</g>
				<g id="shape108-75" transform="translate(18.3776,0)">
					<title>Лист.108</title>
					<ellipse cx="5.02244" cy="590.253" rx="5.02244" ry="5.02244" class="st12"/>
				</g>
				<g id="shape109-77" transform="translate(18.3776,-0.0159805)">
					<title>Лист.109</title>
					<ellipse cx="5.02244" cy="590.253" rx="5.02244" ry="5.02244" class="st9"/>
				</g>
			</g>
		</g>
		<g id="shape110-79" transform="translate(99.2126,-297.638)">
			<title>Лист.110</title>
			<desc>Регион 1</desc>
			<rect x="0" y="575.276" width="152" height="20" class="st13"/>
			<text x="46.44" y="590.08" class="st14">Регион 1</text>		</g>
		<g id="group112-82" transform="translate(155.906,-212.598)">
			<title>Azure Database for PostgreSQL servers</title>
			<g id="group113-83">
				<title>Icon-databases-131</title>
				<g id="shape114-84">
					<title>Лист.114</title>
					<path d="M14.17 567.95 C6.35 567.95 0 565.74 0 562.82 L0 590.15 C0 592.95 6.24 595.23 13.97 595.28 L14.17 595.28
								 C22 595.28 28.35 593.06 28.35 590.15 L28.35 562.82 C28.35 565.65 22 567.95 14.17 567.95 Z"
							class="st15"/>
				</g>
				<g id="shape115-88" transform="translate(0,-27.3293)">
					<title>Лист.115</title>
					<path d="M28.35 590.15 C28.35 592.98 22 595.28 14.17 595.28 C6.35 595.28 0 593.06 0 590.15 C0 587.23 6.35 585.02
								 14.17 585.02 C22 585.02 28.35 587.23 28.35 590.15 Z" class="st16"/>
				</g>
				<g id="shape116-90" transform="translate(3.29456,-29.6068)">
					<title>Лист.116</title>
					<path d="M21.74 592 C21.74 593.82 16.87 595.28 10.88 595.28 C4.89 595.28 0 593.82 0 592.03 C0 590.23 4.86 588.75
								 10.88 588.75 C16.89 588.75 21.74 590.21 21.74 592 Z" class="st17"/>
				</g>
				<g id="shape117-92" transform="translate(5.54989,-29.6068)">
					<title>Лист.117</title>
					<path d="M8.62 592.82 A25.7595 25.7595 -180 0 0 -0 594.08 A25.4941 25.4941 -180 0 0 8.62 595.28 A25.3615 25.3615
								 -180 0 0 17.22 593.99 A26.3786 26.3786 -180 0 0 8.62 592.82 Z" class="st18"/>
				</g>
				<g id="shape118-94" transform="translate(4.22322,-3.91367)">
					<title>Лист.118</title>
					<path d="M16.58 580.39 L16.58 581.32 A11.3209 11.3209 -180 0 0 16.41 582.72 C16.41 582.98 16.41 583.38 16.52
								 583.73 C16.63 584.09 16.52 584.33 16.52 584.53 A3.71467 3.71467 0 0 1 15.96 586.43 a0.950778 0.950778
								 -180 0 0 5.32907E-15 0.154778 L16.19 586.85 A23.3272 23.3272 -180 0 0 18.53 581.59 C19.15 579.49
								 19.21 577.98 18.73 577.34 A5.70467 5.70467 -180 0 0 12.8 575.44 A7.27456 7.27456 0 0 1 14.81 576.92
								 A5.04134 5.04134 0 0 1 16.58 580.39 ZM15.9 580.57 A2.54278 2.54278 -180 0 0 14.15 580.77 C13.51
								 581.17 13.71 581.99 14.15 582.98 A17.1803 17.1803 -180 0 0 14.93 584.86 L15.12 585.22 C15.23 585.39
								 15.3 585.55 15.37 585.66 L15.54 585.94 A2.83022 2.83022 -180 0 0 15.94 584.51 A6.32378 6.32378 -180
								 0 0 15.94 583.78 C15.94 583.4 15.94 582.98 15.83 582.69 A13.4878 13.4878 0 0 1 16.01 581.17 A1.70919
								 1.70919 0 0 1 15.99 580.51 L15.9 580.57 ZM15.23 581.48 a0.884445 0.884445 0 0 1 -0.398 0.221111
								 a0.729667 0.729667 0 0 1 -0.309556 0 a0.508556 0.508556 0 0 1 -0.154778 -0.420111 C14.37 581.12
								 14.62 580.99 14.9 580.95 L15.32 580.95 C15.32 580.95 15.52 580.95 15.52 581.12 a0.442222 0.442222
								 0 0 1 -0.199 0.287445 L15.23 581.48 ZM4.86 583.45 L4.86 583.07 A2.21111 2.21111 -180 0 0 4.86 582.69
								 A12.2717 12.2717 0 0 1 4.86 580.48 A11.542 11.542 0 0 1 5.53 578.05 A5.32878 5.32878 0 0 1 6.81
								 575.97 A10.5691 10.5691 -180 0 0 3.83 575.53 A4.13478 4.13478 -180 0 0 1.39 576.19 A4.42222 4.42222
								 -180 0 0 0 580.22 A27.1303 27.1303 -180 0 0 1.11 585.17 C1.86 587.69 2.72 589.24 3.47 589.48 C3.8
								 589.59 4.16 589.48 4.51 589.02 C5.13 588.27 5.7 587.63 6.04 587.25 A4.15689 4.15689 0 0 1 4.95 583.38
								 L4.86 583.45 ZM5.44 584.33 A4.82022 4.82022 -180 0 0 5.57 585.57 A3.31667 3.31667 -180 0 0 6.15
								 586.54 A2.36589 2.36589 -180 0 0 6.92 587.09 A2.41011 2.41011 -180 0 0 7.78 587.27 C7.78 586.9 8.09
								 586.43 8.29 585.94 A9.61834 9.61834 -180 0 0 8.76 584.64 A14.6155 14.6155 -180 0 0 8.76 582.19 C8.76
								 581.99 8.76 581.77 8.62 581.52 a0.995 0.995 -180 0 0 -0.265333 -0.597 A1.45933 1.45933 -180 0 0
								 7.74 580.57 L7.3 580.57 A3.44933 3.44933 -180 0 0 6.24 580.88 A4.42222 4.42222 -180 0 0 5.53 581.3
								 L5.53 582.89 A1.90156 1.90156 0 0 1 5.53 583.23 L5.53 584.09 L5.44 584.33 ZM6.9 581.37 A1.01711
								 1.01711 0 0 1 7.52 581.37 A1.32667 1.32667 0 0 1 7.94 581.5 C8.14 581.5 8.16 581.74 8.14 581.81
								 a0.818111 0.818111 0 0 1 -0.265333 0.287445 a0.663334 0.663334 0 0 1 -0.132667 -0.0884445 a0.751778
								 0.751778 0 0 1 -0.619111 -0.619111 L6.9 581.37 ZM8.53 588 a0.508556 0.508556 -180 0 0 -0.287445
								 0.132667 L7.94 588.51 C7.56 588.97 7.41 589.13 6.32 589.35 A1.14978 1.14978 -180 0 0 5.75 589.57
								 A1.28244 1.28244 -180 0 0 6.28 589.81 A2.60911 2.60911 -180 0 0 7.87 589.81 A3.75889 3.75889 -180
								 0 0 8.73 589.24 A1.34878 1.34878 -180 0 0 9.18 588.55 a0.796 0.796 -180 0 0 -0.221111 -0.619111
								 a0.331667 0.331667 -180 0 0 -0.331667 -0.0442222 L8.53 588 ZM18.73 588 A3.60411 3.60411 0 0 1 16.23
								 588 a0.486445 0.486445 -180 0 0 -0.309556 0 a0.663334 0.663334 -180 0 0 -0.375889 0.309556 A2.41011
								 2.41011 -180 0 0 15.54 589 A3.98 3.98 -180 0 0 17.98 588.77 A3.00711 3.00711 -180 0 0 19.04 588.02
								 L18.73 588 ZM13.42 583.27 C13.11 582.36 12.67 581.06 13.82 580.26 A2.985 2.985 0 0 1 15.79 579.93
								 A7.03134 7.03134 -180 0 0 14.37 577.39 L14.15 577.17 L14.02 577.03 a0.751778 0.751778 -180 0 0 -0.132667
								 -0.132667 A5.174 5.174 -180 0 0 12.4 575.97 A5.81522 5.81522 -180 0 0 9.95 575.49 A3.36089 3.36089
								 -180 0 0 8.4 575.73 A3.91367 3.91367 -180 0 0 7.74 575.97 A4.64334 4.64334 -180 0 0 6.1 578.18 A12.9129
								 12.9129 -180 0 0 5.64 580.39 A3.67045 3.67045 0 0 1 7.85 579.89 A1.85733 1.85733 0 0 1 9.55 581.9
								 A16.0527 16.0527 0 0 1 9.55 584.71 A8.557 8.557 0 0 1 9.04 586.1 C8.91 586.48 8.73 586.87 8.65 587.18
								 A1.10556 1.10556 0 0 1 9.49 587.49 A1.45933 1.45933 0 0 1 9.91 588.66 L9.95 588.66 L9.95 589.2 A14.4828
								 14.4828 -180 0 0 10.48 594.59 A1.194 1.194 -180 0 0 11.01 595.05 A1.32667 1.32667 -180 0 0 11.7
								 595.28 A2.87445 2.87445 -180 0 0 13.91 594.52 A2.32167 2.32167 -180 0 0 14.55 593.06 C14.7 592.07
								 15.04 589.31 15.08 588.64 A1.592 1.592 0 0 1 15.28 587.67 A1.393 1.393 0 0 1 15.88 587.14 A11.8516
								 11.8516 0 0 1 13.51 583.14 L13.42 583.27 Z" class="st19"/>
				</g>
			</g>
		</g>
		<g id="group127-96" transform="translate(206.535,-212.598)">
			<title>Local Network Gateways</title>
			<g id="group128-97">
				<title>Лист.128</title>
				<g id="shape129-98">
					<title>Лист.129</title>
					<path d="M18.71 595.28 C17.82 595.28 16.92 594.9 16.24 594.23 L1.05 579.03 C0.37 578.36 0 577.46 0 576.56 C0
								 575.66 0.37 574.76 1.05 574.09 L16.24 558.9 C16.92 558.22 17.82 557.85 18.71 557.85 C19.61 557.85
								 20.51 558.22 21.18 558.9 L36.46 574.17 C37.13 574.84 37.5 575.66 37.5 576.64 C37.5 577.53 37.13
								 578.43 36.46 579.11 L21.18 594.23 C20.51 594.9 19.61 595.28 18.71 595.28 Z" class="st12"/>
				</g>
				<g id="shape130-100" transform="translate(-1.95843E-13,-7.63537)">
					<title>Лист.130</title>
					<path d="M21.18 566.53 C20.51 565.86 19.61 565.48 18.71 565.48 C17.82 565.48 16.92 565.86 16.24 566.53 L1.05
								 581.73 C0.37 582.4 0 583.3 0 584.2 C0 585.1 0.37 585.99 1.05 586.67 L9.66 595.28 L25.9 571.25 L21.18
								 566.53 Z" class="st20"/>
				</g>
				<g id="shape131-102" transform="translate(4.79082,-3.29369)">
					<title>Лист.131</title>
					<path d="M13.92 564.43 L8.98 569.38 L12.5 569.38 L12.5 576.56 L15.42 576.56 L15.42 569.38 L18.86 569.38 L13.92
								 564.43 ZM13.92 595.28 L18.86 590.34 L15.35 590.34 L15.35 583.3 L12.43 583.3 L12.43 590.34 L8.98
								 590.34 L13.92 595.28 ZM16.24 579.86 L21.18 584.8 L21.18 581.35 L27.85 581.35 L27.85 578.36 L21.18
								 578.36 L21.18 574.91 L16.24 579.86 ZM11.68 579.86 L6.74 574.91 L6.74 578.36 L0 578.36 L0 581.35
								 L6.74 581.35 L6.74 584.8 L11.68 579.86 Z" class="st21"/>
				</g>
			</g>
		</g>
		<g id="shape132-104" transform="translate(99.2126,-259.291)">
			<title>Лист.132</title>
			<desc>Поставщики ресурсов</desc>
			<rect x="0" y="575.276" width="152" height="20" class="st13"/>
			<text x="20.26" y="588.88" class="st22">Поставщики ресурсов</text>		</g>
		<g id="shape133-107" transform="translate(297.638,-99.2126)">
			<title>Прямоугольник.133</title>
			<rect x="0" y="368.504" width="212.598" height="226.772" class="st3"/>
		</g>
		<g id="shape134-109" transform="translate(311.811,-198.425)">
			<title>Прямоугольник.134</title>
			<rect x="0" y="510.236" width="184.252" height="85.0394" class="st4"/>
		</g>
		<g id="group135-111" transform="translate(325.984,-212.598)">
			<title>Container Instances.135</title>
			<g id="shape136-112" transform="translate(0,-13.6293)">
				<title>Лист.136</title>
				<path d="M31.5 579.65 A9.03246 9.03246 -180 0 0 15.14 574.88 A7.15085 7.15085 -180 0 0 3.84 582.3 A6.79119 6.79119
							 -180 0 0 6.64 595.28 L29.64 595.28 A7.92242 7.92242 -180 0 0 31.5 579.65 Z" class="st5"/>
			</g>
			<g id="shape137-114" transform="translate(0,-13.6293)">
				<title>Лист.137</title>
				<path d="M31.5 579.65 A9.03246 9.03246 -180 0 0 15.14 574.88 A7.15085 7.15085 -180 0 0 3.84 582.3 A6.79119 6.79119
							 -180 0 0 6.64 595.28 L29.64 595.28 A7.92242 7.92242 -180 0 0 31.5 579.65 Z" class="st6"/>
			</g>
			<g id="shape138-116" transform="translate(8.85824,1.13687E-13)">
				<title>Лист.138</title>
				<path d="M0.76 574.07 a0.757185 0.757185 -180 0 0 -0.757185 0.757185 L0 594.52 a0.757185 0.757185 -180 0 0 0.757185
							 0.757185 L18.93 595.28 a0.757185 0.757185 -180 0 0 0.757185 -0.757185 L19.69 574.83 a0.757185 0.757185
							 -180 0 0 -0.757185 -0.757185 L0.76 574.07 Z" class="st7"/>
			</g>
			<g id="shape139-118" transform="translate(20.1781,-25.7443)">
				<title>Лист.139</title>
			</g>
			<g id="shape140-119" transform="translate(26.2356,-22.7155)">
				<title>Лист.140</title>
			</g>
			<g id="shape141-120" transform="translate(14.9157,-21.2012)">
				<title>Лист.141</title>
				<path d="M2.27 595.28 L2.27 589.98 L0 589.98 L3.79 584.68 L7.57 589.98 L5.3 589.98 L5.3 595.28 L2.27 595.28 Z"
						class="st5"/>
			</g>
			<g id="shape142-122" transform="translate(20.1781,-25.7443)">
				<title>Лист.142</title>
			</g>
			<g id="shape143-123" transform="translate(11.1298,-2.27155)">
				<title>Лист.143</title>
				<path d="M13.63 578.62 L0 578.62 L0 595.28 L15.14 595.28 L15.14 578.62 L13.63 578.62 ZM4.54 593.76 L1.51 593.76 L1.51
							 580.13 L4.54 580.13 L4.54 593.76 ZM9.09 593.76 L6.06 593.76 L6.06 580.13 L9.09 580.13 L9.09 593.76 ZM13.63
							 593.76 L10.6 593.76 L10.6 580.13 L13.63 580.13 L13.63 593.76 Z" class="st8"/>
			</g>
			<g id="shape144-125" transform="translate(11.1298,-2.27155)">
				<title>Лист.144</title>
				<path d="M13.63 578.62 L0 578.62 L0 595.28 L15.14 595.28 L15.14 578.62 L13.63 578.62 ZM4.54 593.76 L1.51 593.76 L1.51
							 580.13 L4.54 580.13 L4.54 593.76 ZM9.09 593.76 L6.06 593.76 L6.06 580.13 L9.09 580.13 L9.09 593.76 ZM13.63
							 593.76 L10.6 593.76 L10.6 580.13 L13.63 580.13 L13.63 593.76 Z" class="st5"/>
			</g>
		</g>
		<g id="group145-127" transform="translate(316.757,-113.386)">
			<title>Hosts.145</title>
			<g id="group146-128">
				<title>Лист.146</title>
				<g id="shape147-129" transform="translate(21.6878,-7.89208)">
					<title>Лист.147</title>
					<rect x="0" y="563.315" width="3.42439" height="31.961" class="st9"/>
				</g>
				<g id="shape148-131" transform="translate(0,-39.8531)">
					<title>Лист.148</title>
					<path d="M44.9 579.3 L1.9 579.3 C0.85 579.3 0 580.15 0 581.2 L0 593.37 C0 594.42 0.85 595.28 1.9 595.28 L44.9
								 595.28 C45.95 595.28 46.8 594.42 46.8 593.37 L46.8 581.2 C46.8 580.15 45.94 579.3 44.9 579.3 Z"
							class="st10"/>
				</g>
				<g id="shape149-133" transform="translate(38.8098,-43.2774)">
					<title>Лист.149</title>
					<path d="M0 585 L3.42 585 L3.42 588.43 L0 588.43 L0 585 ZM0 591.85 L3.42 591.85 L3.42 595.28 L0 595.28 L0 591.85
								 Z" class="st11"/>
				</g>
				<g id="shape150-135" transform="translate(0,-18.1652)">
					<title>Лист.150</title>
					<path d="M44.9 579.3 L1.9 579.3 C0.85 579.3 0 580.15 0 581.2 L0 593.37 C0 594.42 0.85 595.28 1.9 595.28 L44.9
								 595.28 C45.95 595.28 46.8 594.42 46.8 593.37 L46.8 581.2 C46.8 580.15 45.94 579.3 44.9 579.3 Z"
							class="st10"/>
				</g>
				<g id="shape151-137" transform="translate(38.8098,-21.5896)">
					<title>Лист.151</title>
					<path d="M0 585 L3.42 585 L3.42 588.43 L0 588.43 L0 585 ZM0 591.85 L3.42 591.85 L3.42 595.28 L0 595.28 L0 591.85
								 Z" class="st11"/>
				</g>
				<g id="shape152-139" transform="translate(18.3776,0)">
					<title>Лист.152</title>
					<ellipse cx="5.02244" cy="590.253" rx="5.02244" ry="5.02244" class="st12"/>
				</g>
				<g id="shape153-141" transform="translate(18.3776,-0.0159805)">
					<title>Лист.153</title>
					<ellipse cx="5.02244" cy="590.253" rx="5.02244" ry="5.02244" class="st9"/>
				</g>
			</g>
		</g>
		<g id="group154-143" transform="translate(378.397,-113.386)">
			<title>Hosts.154</title>
			<g id="group155-144">
				<title>Лист.155</title>
				<g id="shape156-145" transform="translate(21.6878,-7.89208)">
					<title>Лист.156</title>
					<rect x="0" y="563.315" width="3.42439" height="31.961" class="st9"/>
				</g>
				<g id="shape157-147" transform="translate(0,-39.8531)">
					<title>Лист.157</title>
					<path d="M44.9 579.3 L1.9 579.3 C0.85 579.3 0 580.15 0 581.2 L0 593.37 C0 594.42 0.85 595.28 1.9 595.28 L44.9
								 595.28 C45.95 595.28 46.8 594.42 46.8 593.37 L46.8 581.2 C46.8 580.15 45.94 579.3 44.9 579.3 Z"
							class="st10"/>
				</g>
				<g id="shape158-149" transform="translate(38.8098,-43.2774)">
					<title>Лист.158</title>
					<path d="M0 585 L3.42 585 L3.42 588.43 L0 588.43 L0 585 ZM0 591.85 L3.42 591.85 L3.42 595.28 L0 595.28 L0 591.85
								 Z" class="st11"/>
				</g>
				<g id="shape159-151" transform="translate(0,-18.1652)">
					<title>Лист.159</title>
					<path d="M44.9 579.3 L1.9 579.3 C0.85 579.3 0 580.15 0 581.2 L0 593.37 C0 594.42 0.85 595.28 1.9 595.28 L44.9
								 595.28 C45.95 595.28 46.8 594.42 46.8 593.37 L46.8 581.2 C46.8 580.15 45.94 579.3 44.9 579.3 Z"
							class="st10"/>
				</g>
				<g id="shape160-153" transform="translate(38.8098,-21.5896)">
					<title>Лист.160</title>
					<path d="M0 585 L3.42 585 L3.42 588.43 L0 588.43 L0 585 ZM0 591.85 L3.42 591.85 L3.42 595.28 L0 595.28 L0 591.85
								 Z" class="st11"/>
				</g>
				<g id="shape161-155" transform="translate(18.3776,0)">
					<title>Лист.161</title>
					<ellipse cx="5.02244" cy="590.253" rx="5.02244" ry="5.02244" class="st12"/>
				</g>
				<g id="shape162-157" transform="translate(18.3776,-0.0159805)">
					<title>Лист.162</title>
					<ellipse cx="5.02244" cy="590.253" rx="5.02244" ry="5.02244" class="st9"/>
				</g>
			</g>
		</g>
		<g id="group163-159" transform="translate(439.37,-113.386)">
			<title>Hosts.163</title>
			<g id="group164-160">
				<title>Лист.164</title>
				<g id="shape165-161" transform="translate(21.6878,-7.89208)">
					<title>Лист.165</title>
					<rect x="0" y="563.315" width="3.42439" height="31.961" class="st9"/>
				</g>
				<g id="shape166-163" transform="translate(0,-39.8531)">
					<title>Лист.166</title>
					<path d="M44.9 579.3 L1.9 579.3 C0.85 579.3 0 580.15 0 581.2 L0 593.37 C0 594.42 0.85 595.28 1.9 595.28 L44.9
								 595.28 C45.95 595.28 46.8 594.42 46.8 593.37 L46.8 581.2 C46.8 580.15 45.94 579.3 44.9 579.3 Z"
							class="st10"/>
				</g>
				<g id="shape167-165" transform="translate(38.8098,-43.2774)">
					<title>Лист.167</title>
					<path d="M0 585 L3.42 585 L3.42 588.43 L0 588.43 L0 585 ZM0 591.85 L3.42 591.85 L3.42 595.28 L0 595.28 L0 591.85
								 Z" class="st11"/>
				</g>
				<g id="shape168-167" transform="translate(0,-18.1652)">
					<title>Лист.168</title>
					<path d="M44.9 579.3 L1.9 579.3 C0.85 579.3 0 580.15 0 581.2 L0 593.37 C0 594.42 0.85 595.28 1.9 595.28 L44.9
								 595.28 C45.95 595.28 46.8 594.42 46.8 593.37 L46.8 581.2 C46.8 580.15 45.94 579.3 44.9 579.3 Z"
							class="st10"/>
				</g>
				<g id="shape169-169" transform="translate(38.8098,-21.5896)">
					<title>Лист.169</title>
					<path d="M0 585 L3.42 585 L3.42 588.43 L0 588.43 L0 585 ZM0 591.85 L3.42 591.85 L3.42 595.28 L0 595.28 L0 591.85
								 Z" class="st11"/>
				</g>
				<g id="shape170-171" transform="translate(18.3776,0)">
					<title>Лист.170</title>
					<ellipse cx="5.02244" cy="590.253" rx="5.02244" ry="5.02244" class="st12"/>
				</g>
				<g id="shape171-173" transform="translate(18.3776,-0.0159805)">
					<title>Лист.171</title>
					<ellipse cx="5.02244" cy="590.253" rx="5.02244" ry="5.02244" class="st9"/>
				</g>
			</g>
		</g>
		<g id="shape172-175" transform="translate(325.984,-297.638)">
			<title>Лист.172</title>
			<desc>Регион 2</desc>
			<rect x="0" y="575.276" width="152" height="20" class="st13"/>
			<text x="46.44" y="590.08" class="st14">Регион 2</text>		</g>
		<g id="group173-178" transform="translate(382.677,-212.598)">
			<title>Azure Database for PostgreSQL servers.173</title>
			<g id="group174-179">
				<title>Icon-databases-131</title>
				<g id="shape175-180">
					<title>Лист.175</title>
					<path d="M14.17 567.95 C6.35 567.95 0 565.74 0 562.82 L0 590.15 C0 592.95 6.24 595.23 13.97 595.28 L14.17 595.28
								 C22 595.28 28.35 593.06 28.35 590.15 L28.35 562.82 C28.35 565.65 22 567.95 14.17 567.95 Z"
							class="st15"/>
				</g>
				<g id="shape176-183" transform="translate(0,-27.3293)">
					<title>Лист.176</title>
					<path d="M28.35 590.15 C28.35 592.98 22 595.28 14.17 595.28 C6.35 595.28 0 593.06 0 590.15 C0 587.23 6.35 585.02
								 14.17 585.02 C22 585.02 28.35 587.23 28.35 590.15 Z" class="st16"/>
				</g>
				<g id="shape177-185" transform="translate(3.29456,-29.6068)">
					<title>Лист.177</title>
					<path d="M21.74 592 C21.74 593.82 16.87 595.28 10.88 595.28 C4.89 595.28 0 593.82 0 592.03 C0 590.23 4.86 588.75
								 10.88 588.75 C16.89 588.75 21.74 590.21 21.74 592 Z" class="st17"/>
				</g>
				<g id="shape178-187" transform="translate(5.54989,-29.6068)">
					<title>Лист.178</title>
					<path d="M8.62 592.82 A25.7595 25.7595 -180 0 0 -0 594.08 A25.4941 25.4941 -180 0 0 8.62 595.28 A25.3615 25.3615
								 -180 0 0 17.22 593.99 A26.3786 26.3786 -180 0 0 8.62 592.82 Z" class="st18"/>
				</g>
				<g id="shape179-189" transform="translate(4.22322,-3.91367)">
					<title>Лист.179</title>
					<path d="M16.58 580.39 L16.58 581.32 A11.3209 11.3209 -180 0 0 16.41 582.72 C16.41 582.98 16.41 583.38 16.52
								 583.73 C16.63 584.09 16.52 584.33 16.52 584.53 A3.71467 3.71467 0 0 1 15.96 586.43 a0.950778 0.950778
								 -180 0 0 5.32907E-15 0.154778 L16.19 586.85 A23.3272 23.3272 -180 0 0 18.53 581.59 C19.15 579.49
								 19.21 577.98 18.73 577.34 A5.70467 5.70467 -180 0 0 12.8 575.44 A7.27456 7.27456 0 0 1 14.81 576.92
								 A5.04134 5.04134 0 0 1 16.58 580.39 ZM15.9 580.57 A2.54278 2.54278 -180 0 0 14.15 580.77 C13.51
								 581.17 13.71 581.99 14.15 582.98 A17.1803 17.1803 -180 0 0 14.93 584.86 L15.12 585.22 C15.23 585.39
								 15.3 585.55 15.37 585.66 L15.54 585.94 A2.83022 2.83022 -180 0 0 15.94 584.51 A6.32378 6.32378 -180
								 0 0 15.94 583.78 C15.94 583.4 15.94 582.98 15.83 582.69 A13.4878 13.4878 0 0 1 16.01 581.17 A1.70919
								 1.70919 0 0 1 15.99 580.51 L15.9 580.57 ZM15.23 581.48 a0.884445 0.884445 0 0 1 -0.398 0.221111
								 a0.729667 0.729667 0 0 1 -0.309556 0 a0.508556 0.508556 0 0 1 -0.154778 -0.420111 C14.37 581.12
								 14.62 580.99 14.9 580.95 L15.32 580.95 C15.32 580.95 15.52 580.95 15.52 581.12 a0.442222 0.442222
								 0 0 1 -0.199 0.287445 L15.23 581.48 ZM4.86 583.45 L4.86 583.07 A2.21111 2.21111 -180 0 0 4.86 582.69
								 A12.2717 12.2717 0 0 1 4.86 580.48 A11.542 11.542 0 0 1 5.53 578.05 A5.32878 5.32878 0 0 1 6.81
								 575.97 A10.5691 10.5691 -180 0 0 3.83 575.53 A4.13478 4.13478 -180 0 0 1.39 576.19 A4.42222 4.42222
								 -180 0 0 0 580.22 A27.1303 27.1303 -180 0 0 1.11 585.17 C1.86 587.69 2.72 589.24 3.47 589.48 C3.8
								 589.59 4.16 589.48 4.51 589.02 C5.13 588.27 5.7 587.63 6.04 587.25 A4.15689 4.15689 0 0 1 4.95 583.38
								 L4.86 583.45 ZM5.44 584.33 A4.82022 4.82022 -180 0 0 5.57 585.57 A3.31667 3.31667 -180 0 0 6.15
								 586.54 A2.36589 2.36589 -180 0 0 6.92 587.09 A2.41011 2.41011 -180 0 0 7.78 587.27 C7.78 586.9 8.09
								 586.43 8.29 585.94 A9.61834 9.61834 -180 0 0 8.76 584.64 A14.6155 14.6155 -180 0 0 8.76 582.19 C8.76
								 581.99 8.76 581.77 8.62 581.52 a0.995 0.995 -180 0 0 -0.265333 -0.597 A1.45933 1.45933 -180 0 0
								 7.74 580.57 L7.3 580.57 A3.44933 3.44933 -180 0 0 6.24 580.88 A4.42222 4.42222 -180 0 0 5.53 581.3
								 L5.53 582.89 A1.90156 1.90156 0 0 1 5.53 583.23 L5.53 584.09 L5.44 584.33 ZM6.9 581.37 A1.01711
								 1.01711 0 0 1 7.52 581.37 A1.32667 1.32667 0 0 1 7.94 581.5 C8.14 581.5 8.16 581.74 8.14 581.81
								 a0.818111 0.818111 0 0 1 -0.265333 0.287445 a0.663334 0.663334 0 0 1 -0.132667 -0.0884445 a0.751778
								 0.751778 0 0 1 -0.619111 -0.619111 L6.9 581.37 ZM8.53 588 a0.508556 0.508556 -180 0 0 -0.287445
								 0.132667 L7.94 588.51 C7.56 588.97 7.41 589.13 6.32 589.35 A1.14978 1.14978 -180 0 0 5.75 589.57
								 A1.28244 1.28244 -180 0 0 6.28 589.81 A2.60911 2.60911 -180 0 0 7.87 589.81 A3.75889 3.75889 -180
								 0 0 8.73 589.24 A1.34878 1.34878 -180 0 0 9.18 588.55 a0.796 0.796 -180 0 0 -0.221111 -0.619111
								 a0.331667 0.331667 -180 0 0 -0.331667 -0.0442222 L8.53 588 ZM18.73 588 A3.60411 3.60411 0 0 1 16.23
								 588 a0.486445 0.486445 -180 0 0 -0.309556 0 a0.663334 0.663334 -180 0 0 -0.375889 0.309556 A2.41011
								 2.41011 -180 0 0 15.54 589 A3.98 3.98 -180 0 0 17.98 588.77 A3.00711 3.00711 -180 0 0 19.04 588.02
								 L18.73 588 ZM13.42 583.27 C13.11 582.36 12.67 581.06 13.82 580.26 A2.985 2.985 0 0 1 15.79 579.93
								 A7.03134 7.03134 -180 0 0 14.37 577.39 L14.15 577.17 L14.02 577.03 a0.751778 0.751778 -180 0 0 -0.132667
								 -0.132667 A5.174 5.174 -180 0 0 12.4 575.97 A5.81522 5.81522 -180 0 0 9.95 575.49 A3.36089 3.36089
								 -180 0 0 8.4 575.73 A3.91367 3.91367 -180 0 0 7.74 575.97 A4.64334 4.64334 -180 0 0 6.1 578.18 A12.9129
								 12.9129 -180 0 0 5.64 580.39 A3.67045 3.67045 0 0 1 7.85 579.89 A1.85733 1.85733 0 0 1 9.55 581.9
								 A16.0527 16.0527 0 0 1 9.55 584.71 A8.557 8.557 0 0 1 9.04 586.1 C8.91 586.48 8.73 586.87 8.65 587.18
								 A1.10556 1.10556 0 0 1 9.49 587.49 A1.45933 1.45933 0 0 1 9.91 588.66 L9.95 588.66 L9.95 589.2 A14.4828
								 14.4828 -180 0 0 10.48 594.59 A1.194 1.194 -180 0 0 11.01 595.05 A1.32667 1.32667 -180 0 0 11.7
								 595.28 A2.87445 2.87445 -180 0 0 13.91 594.52 A2.32167 2.32167 -180 0 0 14.55 593.06 C14.7 592.07
								 15.04 589.31 15.08 588.64 A1.592 1.592 0 0 1 15.28 587.67 A1.393 1.393 0 0 1 15.88 587.14 A11.8516
								 11.8516 0 0 1 13.51 583.14 L13.42 583.27 Z" class="st19"/>
				</g>
			</g>
		</g>
		<g id="group180-191" transform="translate(433.306,-212.598)">
			<title>Local Network Gateways.180</title>
			<g id="group181-192">
				<title>Лист.181</title>
				<g id="shape182-193">
					<title>Лист.182</title>
					<path d="M18.71 595.28 C17.82 595.28 16.92 594.9 16.24 594.23 L1.05 579.03 C0.37 578.36 0 577.46 0 576.56 C0
								 575.66 0.37 574.76 1.05 574.09 L16.24 558.9 C16.92 558.22 17.82 557.85 18.71 557.85 C19.61 557.85
								 20.51 558.22 21.18 558.9 L36.46 574.17 C37.13 574.84 37.5 575.66 37.5 576.64 C37.5 577.53 37.13
								 578.43 36.46 579.11 L21.18 594.23 C20.51 594.9 19.61 595.28 18.71 595.28 Z" class="st12"/>
				</g>
				<g id="shape183-195" transform="translate(-1.95843E-13,-7.63537)">
					<title>Лист.183</title>
					<path d="M21.18 566.53 C20.51 565.86 19.61 565.48 18.71 565.48 C17.82 565.48 16.92 565.86 16.24 566.53 L1.05
								 581.73 C0.37 582.4 0 583.3 0 584.2 C0 585.1 0.37 585.99 1.05 586.67 L9.66 595.28 L25.9 571.25 L21.18
								 566.53 Z" class="st20"/>
				</g>
				<g id="shape184-197" transform="translate(4.79082,-3.29369)">
					<title>Лист.184</title>
					<path d="M13.92 564.43 L8.98 569.38 L12.5 569.38 L12.5 576.56 L15.42 576.56 L15.42 569.38 L18.86 569.38 L13.92
								 564.43 ZM13.92 595.28 L18.86 590.34 L15.35 590.34 L15.35 583.3 L12.43 583.3 L12.43 590.34 L8.98
								 590.34 L13.92 595.28 ZM16.24 579.86 L21.18 584.8 L21.18 581.35 L27.85 581.35 L27.85 578.36 L21.18
								 578.36 L21.18 574.91 L16.24 579.86 ZM11.68 579.86 L6.74 574.91 L6.74 578.36 L0 578.36 L0 581.35
								 L6.74 581.35 L6.74 584.8 L11.68 579.86 Z" class="st21"/>
				</g>
			</g>
		</g>
		<g id="shape185-199" transform="translate(325.984,-259.291)">
			<title>Лист.185</title>
			<desc>Поставщики ресурсов</desc>
			<rect x="0" y="575.276" width="152" height="20" class="st13"/>
			<text x="20.26" y="588.88" class="st22">Поставщики ресурсов</text>		</g>
		<g id="shape186-202" transform="translate(524.409,-99.2126)">
			<title>Прямоугольник.186</title>
			<rect x="0" y="368.504" width="212.598" height="226.772" class="st3"/>
		</g>
		<g id="shape187-204" transform="translate(538.583,-198.425)">
			<title>Прямоугольник.187</title>
			<rect x="0" y="510.236" width="184.252" height="85.0394" class="st4"/>
		</g>
		<g id="group188-206" transform="translate(552.756,-212.598)">
			<title>Container Instances.188</title>
			<g id="shape189-207" transform="translate(0,-13.6293)">
				<title>Лист.189</title>
				<path d="M31.5 579.65 A9.03246 9.03246 -180 0 0 15.14 574.88 A7.15085 7.15085 -180 0 0 3.84 582.3 A6.79119 6.79119
							 -180 0 0 6.64 595.28 L29.64 595.28 A7.92242 7.92242 -180 0 0 31.5 579.65 Z" class="st5"/>
			</g>
			<g id="shape190-209" transform="translate(0,-13.6293)">
				<title>Лист.190</title>
				<path d="M31.5 579.65 A9.03246 9.03246 -180 0 0 15.14 574.88 A7.15085 7.15085 -180 0 0 3.84 582.3 A6.79119 6.79119
							 -180 0 0 6.64 595.28 L29.64 595.28 A7.92242 7.92242 -180 0 0 31.5 579.65 Z" class="st6"/>
			</g>
			<g id="shape191-211" transform="translate(8.85824,1.13687E-13)">
				<title>Лист.191</title>
				<path d="M0.76 574.07 a0.757185 0.757185 -180 0 0 -0.757185 0.757185 L0 594.52 a0.757185 0.757185 -180 0 0 0.757185
							 0.757185 L18.93 595.28 a0.757185 0.757185 -180 0 0 0.757185 -0.757185 L19.69 574.83 a0.757185 0.757185
							 -180 0 0 -0.757185 -0.757185 L0.76 574.07 Z" class="st7"/>
			</g>
			<g id="shape192-213" transform="translate(20.1781,-25.7443)">
				<title>Лист.192</title>
			</g>
			<g id="shape193-214" transform="translate(26.2356,-22.7155)">
				<title>Лист.193</title>
			</g>
			<g id="shape194-215" transform="translate(14.9157,-21.2012)">
				<title>Лист.194</title>
				<path d="M2.27 595.28 L2.27 589.98 L0 589.98 L3.79 584.68 L7.57 589.98 L5.3 589.98 L5.3 595.28 L2.27 595.28 Z"
						class="st5"/>
			</g>
			<g id="shape195-217" transform="translate(20.1781,-25.7443)">
				<title>Лист.195</title>
			</g>
			<g id="shape196-218" transform="translate(11.1298,-2.27155)">
				<title>Лист.196</title>
				<path d="M13.63 578.62 L0 578.62 L0 595.28 L15.14 595.28 L15.14 578.62 L13.63 578.62 ZM4.54 593.76 L1.51 593.76 L1.51
							 580.13 L4.54 580.13 L4.54 593.76 ZM9.09 593.76 L6.06 593.76 L6.06 580.13 L9.09 580.13 L9.09 593.76 ZM13.63
							 593.76 L10.6 593.76 L10.6 580.13 L13.63 580.13 L13.63 593.76 Z" class="st8"/>
			</g>
			<g id="shape197-220" transform="translate(11.1298,-2.27155)">
				<title>Лист.197</title>
				<path d="M13.63 578.62 L0 578.62 L0 595.28 L15.14 595.28 L15.14 578.62 L13.63 578.62 ZM4.54 593.76 L1.51 593.76 L1.51
							 580.13 L4.54 580.13 L4.54 593.76 ZM9.09 593.76 L6.06 593.76 L6.06 580.13 L9.09 580.13 L9.09 593.76 ZM13.63
							 593.76 L10.6 593.76 L10.6 580.13 L13.63 580.13 L13.63 593.76 Z" class="st5"/>
			</g>
		</g>
		<g id="group198-222" transform="translate(543.529,-113.386)">
			<title>Hosts.198</title>
			<g id="group199-223">
				<title>Лист.199</title>
				<g id="shape200-224" transform="translate(21.6878,-7.89208)">
					<title>Лист.200</title>
					<rect x="0" y="563.315" width="3.42439" height="31.961" class="st9"/>
				</g>
				<g id="shape201-226" transform="translate(0,-39.8531)">
					<title>Лист.201</title>
					<path d="M44.9 579.3 L1.9 579.3 C0.85 579.3 0 580.15 0 581.2 L0 593.37 C0 594.42 0.85 595.28 1.9 595.28 L44.9
								 595.28 C45.95 595.28 46.8 594.42 46.8 593.37 L46.8 581.2 C46.8 580.15 45.94 579.3 44.9 579.3 Z"
							class="st10"/>
				</g>
				<g id="shape202-228" transform="translate(38.8098,-43.2774)">
					<title>Лист.202</title>
					<path d="M0 585 L3.42 585 L3.42 588.43 L0 588.43 L0 585 ZM0 591.85 L3.42 591.85 L3.42 595.28 L0 595.28 L0 591.85
								 Z" class="st11"/>
				</g>
				<g id="shape203-230" transform="translate(0,-18.1652)">
					<title>Лист.203</title>
					<path d="M44.9 579.3 L1.9 579.3 C0.85 579.3 0 580.15 0 581.2 L0 593.37 C0 594.42 0.85 595.28 1.9 595.28 L44.9
								 595.28 C45.95 595.28 46.8 594.42 46.8 593.37 L46.8 581.2 C46.8 580.15 45.94 579.3 44.9 579.3 Z"
							class="st10"/>
				</g>
				<g id="shape204-232" transform="translate(38.8098,-21.5896)">
					<title>Лист.204</title>
					<path d="M0 585 L3.42 585 L3.42 588.43 L0 588.43 L0 585 ZM0 591.85 L3.42 591.85 L3.42 595.28 L0 595.28 L0 591.85
								 Z" class="st11"/>
				</g>
				<g id="shape205-234" transform="translate(18.3776,0)">
					<title>Лист.205</title>
					<ellipse cx="5.02244" cy="590.253" rx="5.02244" ry="5.02244" class="st12"/>
				</g>
				<g id="shape206-236" transform="translate(18.3776,-0.0159805)">
					<title>Лист.206</title>
					<ellipse cx="5.02244" cy="590.253" rx="5.02244" ry="5.02244" class="st9"/>
				</g>
			</g>
		</g>
		<g id="group207-238" transform="translate(605.169,-113.386)">
			<title>Hosts.207</title>
			<g id="group208-239">
				<title>Лист.208</title>
				<g id="shape209-240" transform="translate(21.6878,-7.89208)">
					<title>Лист.209</title>
					<rect x="0" y="563.315" width="3.42439" height="31.961" class="st9"/>
				</g>
				<g id="shape210-242" transform="translate(0,-39.8531)">
					<title>Лист.210</title>
					<path d="M44.9 579.3 L1.9 579.3 C0.85 579.3 0 580.15 0 581.2 L0 593.37 C0 594.42 0.85 595.28 1.9 595.28 L44.9
								 595.28 C45.95 595.28 46.8 594.42 46.8 593.37 L46.8 581.2 C46.8 580.15 45.94 579.3 44.9 579.3 Z"
							class="st10"/>
				</g>
				<g id="shape211-244" transform="translate(38.8098,-43.2774)">
					<title>Лист.211</title>
					<path d="M0 585 L3.42 585 L3.42 588.43 L0 588.43 L0 585 ZM0 591.85 L3.42 591.85 L3.42 595.28 L0 595.28 L0 591.85
								 Z" class="st11"/>
				</g>
				<g id="shape212-246" transform="translate(0,-18.1652)">
					<title>Лист.212</title>
					<path d="M44.9 579.3 L1.9 579.3 C0.85 579.3 0 580.15 0 581.2 L0 593.37 C0 594.42 0.85 595.28 1.9 595.28 L44.9
								 595.28 C45.95 595.28 46.8 594.42 46.8 593.37 L46.8 581.2 C46.8 580.15 45.94 579.3 44.9 579.3 Z"
							class="st10"/>
				</g>
				<g id="shape213-248" transform="translate(38.8098,-21.5896)">
					<title>Лист.213</title>
					<path d="M0 585 L3.42 585 L3.42 588.43 L0 588.43 L0 585 ZM0 591.85 L3.42 591.85 L3.42 595.28 L0 595.28 L0 591.85
								 Z" class="st11"/>
				</g>
				<g id="shape214-250" transform="translate(18.3776,0)">
					<title>Лист.214</title>
					<ellipse cx="5.02244" cy="590.253" rx="5.02244" ry="5.02244" class="st12"/>
				</g>
				<g id="shape215-252" transform="translate(18.3776,-0.0159805)">
					<title>Лист.215</title>
					<ellipse cx="5.02244" cy="590.253" rx="5.02244" ry="5.02244" class="st9"/>
				</g>
			</g>
		</g>
		<g id="group216-254" transform="translate(666.142,-113.386)">
			<title>Hosts.216</title>
			<g id="group217-255">
				<title>Лист.217</title>
				<g id="shape218-256" transform="translate(21.6878,-7.89208)">
					<title>Лист.218</title>
					<rect x="0" y="563.315" width="3.42439" height="31.961" class="st9"/>
				</g>
				<g id="shape219-258" transform="translate(0,-39.8531)">
					<title>Лист.219</title>
					<path d="M44.9 579.3 L1.9 579.3 C0.85 579.3 0 580.15 0 581.2 L0 593.37 C0 594.42 0.85 595.28 1.9 595.28 L44.9
								 595.28 C45.95 595.28 46.8 594.42 46.8 593.37 L46.8 581.2 C46.8 580.15 45.94 579.3 44.9 579.3 Z"
							class="st10"/>
				</g>
				<g id="shape220-260" transform="translate(38.8098,-43.2774)">
					<title>Лист.220</title>
					<path d="M0 585 L3.42 585 L3.42 588.43 L0 588.43 L0 585 ZM0 591.85 L3.42 591.85 L3.42 595.28 L0 595.28 L0 591.85
								 Z" class="st11"/>
				</g>
				<g id="shape221-262" transform="translate(0,-18.1652)">
					<title>Лист.221</title>
					<path d="M44.9 579.3 L1.9 579.3 C0.85 579.3 0 580.15 0 581.2 L0 593.37 C0 594.42 0.85 595.28 1.9 595.28 L44.9
								 595.28 C45.95 595.28 46.8 594.42 46.8 593.37 L46.8 581.2 C46.8 580.15 45.94 579.3 44.9 579.3 Z"
							class="st10"/>
				</g>
				<g id="shape222-264" transform="translate(38.8098,-21.5896)">
					<title>Лист.222</title>
					<path d="M0 585 L3.42 585 L3.42 588.43 L0 588.43 L0 585 ZM0 591.85 L3.42 591.85 L3.42 595.28 L0 595.28 L0 591.85
								 Z" class="st11"/>
				</g>
				<g id="shape223-266" transform="translate(18.3776,0)">
					<title>Лист.223</title>
					<ellipse cx="5.02244" cy="590.253" rx="5.02244" ry="5.02244" class="st12"/>
				</g>
				<g id="shape224-268" transform="translate(18.3776,-0.0159805)">
					<title>Лист.224</title>
					<ellipse cx="5.02244" cy="590.253" rx="5.02244" ry="5.02244" class="st9"/>
				</g>
			</g>
		</g>
		<g id="shape225-270" transform="translate(552.756,-297.638)">
			<title>Лист.225</title>
			<desc>Регион 3</desc>
			<rect x="0" y="575.276" width="152" height="20" class="st13"/>
			<text x="46.44" y="590.08" class="st14">Регион 3</text>		</g>
		<g id="group226-273" transform="translate(609.449,-212.598)">
			<title>Azure Database for PostgreSQL servers.226</title>
			<g id="group227-274">
				<title>Icon-databases-131</title>
				<g id="shape228-275">
					<title>Лист.228</title>
					<path d="M14.17 567.95 C6.35 567.95 0 565.74 0 562.82 L0 590.15 C0 592.95 6.24 595.23 13.97 595.28 L14.17 595.28
								 C22 595.28 28.35 593.06 28.35 590.15 L28.35 562.82 C28.35 565.65 22 567.95 14.17 567.95 Z"
							class="st15"/>
				</g>
				<g id="shape229-278" transform="translate(0,-27.3293)">
					<title>Лист.229</title>
					<path d="M28.35 590.15 C28.35 592.98 22 595.28 14.17 595.28 C6.35 595.28 0 593.06 0 590.15 C0 587.23 6.35 585.02
								 14.17 585.02 C22 585.02 28.35 587.23 28.35 590.15 Z" class="st16"/>
				</g>
				<g id="shape230-280" transform="translate(3.29456,-29.6068)">
					<title>Лист.230</title>
					<path d="M21.74 592 C21.74 593.82 16.87 595.28 10.88 595.28 C4.89 595.28 0 593.82 0 592.03 C0 590.23 4.86 588.75
								 10.88 588.75 C16.89 588.75 21.74 590.21 21.74 592 Z" class="st17"/>
				</g>
				<g id="shape231-282" transform="translate(5.54989,-29.6068)">
					<title>Лист.231</title>
					<path d="M8.62 592.82 A25.7595 25.7595 -180 0 0 -0 594.08 A25.4941 25.4941 -180 0 0 8.62 595.28 A25.3615 25.3615
								 -180 0 0 17.22 593.99 A26.3786 26.3786 -180 0 0 8.62 592.82 Z" class="st18"/>
				</g>
				<g id="shape232-284" transform="translate(4.22322,-3.91367)">
					<title>Лист.232</title>
					<path d="M16.58 580.39 L16.58 581.32 A11.3209 11.3209 -180 0 0 16.41 582.72 C16.41 582.98 16.41 583.38 16.52
								 583.73 C16.63 584.09 16.52 584.33 16.52 584.53 A3.71467 3.71467 0 0 1 15.96 586.43 a0.950778 0.950778
								 -180 0 0 5.32907E-15 0.154778 L16.19 586.85 A23.3272 23.3272 -180 0 0 18.53 581.59 C19.15 579.49
								 19.21 577.98 18.73 577.34 A5.70467 5.70467 -180 0 0 12.8 575.44 A7.27456 7.27456 0 0 1 14.81 576.92
								 A5.04134 5.04134 0 0 1 16.58 580.39 ZM15.9 580.57 A2.54278 2.54278 -180 0 0 14.15 580.77 C13.51
								 581.17 13.71 581.99 14.15 582.98 A17.1803 17.1803 -180 0 0 14.93 584.86 L15.12 585.22 C15.23 585.39
								 15.3 585.55 15.37 585.66 L15.54 585.94 A2.83022 2.83022 -180 0 0 15.94 584.51 A6.32378 6.32378 -180
								 0 0 15.94 583.78 C15.94 583.4 15.94 582.98 15.83 582.69 A13.4878 13.4878 0 0 1 16.01 581.17 A1.70919
								 1.70919 0 0 1 15.99 580.51 L15.9 580.57 ZM15.23 581.48 a0.884445 0.884445 0 0 1 -0.398 0.221111
								 a0.729667 0.729667 0 0 1 -0.309556 0 a0.508556 0.508556 0 0 1 -0.154778 -0.420111 C14.37 581.12
								 14.62 580.99 14.9 580.95 L15.32 580.95 C15.32 580.95 15.52 580.95 15.52 581.12 a0.442222 0.442222
								 0 0 1 -0.199 0.287445 L15.23 581.48 ZM4.86 583.45 L4.86 583.07 A2.21111 2.21111 -180 0 0 4.86 582.69
								 A12.2717 12.2717 0 0 1 4.86 580.48 A11.542 11.542 0 0 1 5.53 578.05 A5.32878 5.32878 0 0 1 6.81
								 575.97 A10.5691 10.5691 -180 0 0 3.83 575.53 A4.13478 4.13478 -180 0 0 1.39 576.19 A4.42222 4.42222
								 -180 0 0 0 580.22 A27.1303 27.1303 -180 0 0 1.11 585.17 C1.86 587.69 2.72 589.24 3.47 589.48 C3.8
								 589.59 4.16 589.48 4.51 589.02 C5.13 588.27 5.7 587.63 6.04 587.25 A4.15689 4.15689 0 0 1 4.95 583.38
								 L4.86 583.45 ZM5.44 584.33 A4.82022 4.82022 -180 0 0 5.57 585.57 A3.31667 3.31667 -180 0 0 6.15
								 586.54 A2.36589 2.36589 -180 0 0 6.92 587.09 A2.41011 2.41011 -180 0 0 7.78 587.27 C7.78 586.9 8.09
								 586.43 8.29 585.94 A9.61834 9.61834 -180 0 0 8.76 584.64 A14.6155 14.6155 -180 0 0 8.76 582.19 C8.76
								 581.99 8.76 581.77 8.62 581.52 a0.995 0.995 -180 0 0 -0.265333 -0.597 A1.45933 1.45933 -180 0 0
								 7.74 580.57 L7.3 580.57 A3.44933 3.44933 -180 0 0 6.24 580.88 A4.42222 4.42222 -180 0 0 5.53 581.3
								 L5.53 582.89 A1.90156 1.90156 0 0 1 5.53 583.23 L5.53 584.09 L5.44 584.33 ZM6.9 581.37 A1.01711
								 1.01711 0 0 1 7.52 581.37 A1.32667 1.32667 0 0 1 7.94 581.5 C8.14 581.5 8.16 581.74 8.14 581.81
								 a0.818111 0.818111 0 0 1 -0.265333 0.287445 a0.663334 0.663334 0 0 1 -0.132667 -0.0884445 a0.751778
								 0.751778 0 0 1 -0.619111 -0.619111 L6.9 581.37 ZM8.53 588 a0.508556 0.508556 -180 0 0 -0.287445
								 0.132667 L7.94 588.51 C7.56 588.97 7.41 589.13 6.32 589.35 A1.14978 1.14978 -180 0 0 5.75 589.57
								 A1.28244 1.28244 -180 0 0 6.28 589.81 A2.60911 2.60911 -180 0 0 7.87 589.81 A3.75889 3.75889 -180
								 0 0 8.73 589.24 A1.34878 1.34878 -180 0 0 9.18 588.55 a0.796 0.796 -180 0 0 -0.221111 -0.619111
								 a0.331667 0.331667 -180 0 0 -0.331667 -0.0442222 L8.53 588 ZM18.73 588 A3.60411 3.60411 0 0 1 16.23
								 588 a0.486445 0.486445 -180 0 0 -0.309556 0 a0.663334 0.663334 -180 0 0 -0.375889 0.309556 A2.41011
								 2.41011 -180 0 0 15.54 589 A3.98 3.98 -180 0 0 17.98 588.77 A3.00711 3.00711 -180 0 0 19.04 588.02
								 L18.73 588 ZM13.42 583.27 C13.11 582.36 12.67 581.06 13.82 580.26 A2.985 2.985 0 0 1 15.79 579.93
								 A7.03134 7.03134 -180 0 0 14.37 577.39 L14.15 577.17 L14.02 577.03 a0.751778 0.751778 -180 0 0 -0.132667
								 -0.132667 A5.174 5.174 -180 0 0 12.4 575.97 A5.81522 5.81522 -180 0 0 9.95 575.49 A3.36089 3.36089
								 -180 0 0 8.4 575.73 A3.91367 3.91367 -180 0 0 7.74 575.97 A4.64334 4.64334 -180 0 0 6.1 578.18 A12.9129
								 12.9129 -180 0 0 5.64 580.39 A3.67045 3.67045 0 0 1 7.85 579.89 A1.85733 1.85733 0 0 1 9.55 581.9
								 A16.0527 16.0527 0 0 1 9.55 584.71 A8.557 8.557 0 0 1 9.04 586.1 C8.91 586.48 8.73 586.87 8.65 587.18
								 A1.10556 1.10556 0 0 1 9.49 587.49 A1.45933 1.45933 0 0 1 9.91 588.66 L9.95 588.66 L9.95 589.2 A14.4828
								 14.4828 -180 0 0 10.48 594.59 A1.194 1.194 -180 0 0 11.01 595.05 A1.32667 1.32667 -180 0 0 11.7
								 595.28 A2.87445 2.87445 -180 0 0 13.91 594.52 A2.32167 2.32167 -180 0 0 14.55 593.06 C14.7 592.07
								 15.04 589.31 15.08 588.64 A1.592 1.592 0 0 1 15.28 587.67 A1.393 1.393 0 0 1 15.88 587.14 A11.8516
								 11.8516 0 0 1 13.51 583.14 L13.42 583.27 Z" class="st19"/>
				</g>
			</g>
		</g>
		<g id="group233-286" transform="translate(660.078,-212.598)">
			<title>Local Network Gateways.233</title>
			<g id="group234-287">
				<title>Лист.234</title>
				<g id="shape235-288">
					<title>Лист.235</title>
					<path d="M18.71 595.28 C17.82 595.28 16.92 594.9 16.24 594.23 L1.05 579.03 C0.37 578.36 0 577.46 0 576.56 C0
								 575.66 0.37 574.76 1.05 574.09 L16.24 558.9 C16.92 558.22 17.82 557.85 18.71 557.85 C19.61 557.85
								 20.51 558.22 21.18 558.9 L36.46 574.17 C37.13 574.84 37.5 575.66 37.5 576.64 C37.5 577.53 37.13
								 578.43 36.46 579.11 L21.18 594.23 C20.51 594.9 19.61 595.28 18.71 595.28 Z" class="st12"/>
				</g>
				<g id="shape236-290" transform="translate(-1.95843E-13,-7.63537)">
					<title>Лист.236</title>
					<path d="M21.18 566.53 C20.51 565.86 19.61 565.48 18.71 565.48 C17.82 565.48 16.92 565.86 16.24 566.53 L1.05
								 581.73 C0.37 582.4 0 583.3 0 584.2 C0 585.1 0.37 585.99 1.05 586.67 L9.66 595.28 L25.9 571.25 L21.18
								 566.53 Z" class="st20"/>
				</g>
				<g id="shape237-292" transform="translate(4.79082,-3.29369)">
					<title>Лист.237</title>
					<path d="M13.92 564.43 L8.98 569.38 L12.5 569.38 L12.5 576.56 L15.42 576.56 L15.42 569.38 L18.86 569.38 L13.92
								 564.43 ZM13.92 595.28 L18.86 590.34 L15.35 590.34 L15.35 583.3 L12.43 583.3 L12.43 590.34 L8.98
								 590.34 L13.92 595.28 ZM16.24 579.86 L21.18 584.8 L21.18 581.35 L27.85 581.35 L27.85 578.36 L21.18
								 578.36 L21.18 574.91 L16.24 579.86 ZM11.68 579.86 L6.74 574.91 L6.74 578.36 L0 578.36 L0 581.35
								 L6.74 581.35 L6.74 584.8 L11.68 579.86 Z" class="st21"/>
				</g>
			</g>
		</g>
		<g id="shape238-294" transform="translate(552.756,-259.291)">
			<title>Лист.238</title>
			<desc>Поставщики ресурсов</desc>
			<rect x="0" y="575.276" width="152" height="20" class="st13"/>
			<text x="20.26" y="588.88" class="st22">Поставщики ресурсов</text>		</g>
		<g id="shape239-297" transform="translate(510.236,-212.598)">
			<title>Простая стрелка</title>
			<path d="M0 595.28 L11.34 583.94 L11.34 589.61 L14.17 589.61 L14.17 595.28 L14.17 600.94 L11.34 600.94 L11.34 606.61
						 L0 595.28 Z" class="st23"/>
		</g>
		<g id="shape242-299" transform="translate(-425.197,269.291) rotate(-90)">
			<title>Простая стрелка.242</title>
			<path d="M0 595.28 L11.34 583.94 L11.34 589.61 L42.52 589.61 L42.52 595.28 L42.52 600.94 L11.34 600.94 L11.34 606.61
						 L0 595.28 Z" class="st23"/>
		</g>
		<g id="shape243-301" transform="translate(-198.425,269.291) rotate(-90)">
			<title>Простая стрелка.243</title>
			<path d="M0 595.28 L11.34 583.94 L11.34 589.61 L42.52 589.61 L42.52 595.28 L42.52 600.94 L11.34 600.94 L11.34 606.61
						 L0 595.28 Z" class="st23"/>
		</g>
		<g id="shape244-303" transform="translate(28.3465,269.291) rotate(-90)">
			<title>Простая стрелка.244</title>
			<path d="M0 595.28 L11.34 583.94 L11.34 589.61 L42.52 589.61 L42.52 595.28 L42.52 600.94 L11.34 600.94 L11.34 606.61
						 L0 595.28 Z" class="st23"/>
		</g>
		<g id="shape241-305" transform="translate(-198.425,155.906) rotate(-90)">
			<title>Простая стрелка.241</title>
			<path d="M0 595.28 L11.34 583.94 L11.34 589.61 L56.69 589.61 L56.69 595.28 L56.69 600.94 L11.34 600.94 L11.34 606.61
						 L0 595.28 Z" class="st23"/>
		</g>
		<g id="group1-307" transform="translate(675.737,-510.236)">
			<title>Azure Active Directory</title>
			<g id="group2-308">
				<title>Лист.2</title>
				<g id="shape3-309">
					<title>Лист.3</title>
					<path d="M2.63 577.08 L23.22 590.44 L44.17 577.02 L46.8 580.09 L23.22 595.28 L0 580.09 L2.63 577.08 Z"
							class="st17"/>
				</g>
				<g id="shape4-311" transform="translate(4.186,-7.618)">
					<title>Лист.4</title>
					<path d="M0 582.98 L19.03 560.31 L38.45 583 L19.03 595.28 L0 582.98 Z" class="st24"/>
				</g>
				<g id="shape5-313" transform="translate(4.186,-7.618)">
					<title>Лист.5</title>
					<path d="M19.03 560.31 L19.03 595.28 L0 582.98 L19.03 560.31 Z" class="st17"/>
				</g>
				<g id="shape6-315" transform="translate(23.218,-7.618)">
					<title>Лист.6</title>
					<path d="M0 560.31 L0 595.28 L19.42 583 L0 560.31 Z" class="st25"/>
				</g>
				<g id="shape7-319" transform="translate(23.218,-7.618)">
					<title>Лист.7</title>
					<path d="M0 578.38 L19.42 583 L0 595.28 L0 578.38 Z" class="st26"/>
				</g>
				<g id="shape8-321" transform="translate(4.186,-7.618)">
					<title>Лист.8</title>
					<path d="M19.03 595.28 L0 582.98 L19.03 578.38 L19.03 595.28 Z" class="st27"/>
				</g>
				<g id="shape9-323" transform="translate(23.218,2.27374E-13)">
					<title>Лист.9</title>
					<path d="M0 595.28 L23.58 580.09 L20.96 577.02 L0 590.44 L0 595.28 Z" class="st28"/>
				</g>
			</g>
		</g>
	</g>
</svg>
